<?xml version="1.0" standalone="no"?>
<!DOCTYPE svg PUBLIC "-//W3C//DTD SVG 20010904//EN"
 "http://www.w3.org/TR/2001/REC-SVG-20010904/DTD/svg10.dtd">
<svg version="1.0" xmlns="http://www.w3.org/2000/svg"
 width="504.000000pt" height="504.000000pt" viewBox="0 0 504.000000 504.000000"
 preserveAspectRatio="xMidYMid meet">
<metadata>
Created by potrace 1.11, written by Peter Selinger 2001-2013
</metadata>
<g transform="translate(0.000000,504.000000) scale(0.100000,-0.100000)"
fill="#000000" stroke="none">
<path d="M2187 4800 c-170 -98 -311 -181 -315 -184 -3 -4 77 -5 178 -2 917 26
944 26 1088 -3 23 -5 41 -6 38 -4 -18 18 -653 373 -665 372 -9 -1 -155 -81
-324 -179z"/>
<path d="M2586 4483 c-2 -2 -715 -11 -1014 -12 l-164 -1 53 -62 c30 -35 56
-65 59 -68 3 -3 75 -85 158 -182 110 -128 159 -178 175 -179 12 0 249 -2 527
-5 298 -2 524 -9 551 -15 144 -33 207 -215 114 -330 -11 -13 -36 -36 -55 -49
l-35 -25 -385 -2 c-212 -1 -388 -2 -392 -2 -6 -1 424 -560 467 -607 5 -7 82
-105 169 -218 132 -171 164 -206 185 -207 224 -7 721 -12 726 -7 2 2 -115 150
-260 328 l-264 324 62 34 c185 102 311 270 354 472 9 43 10 222 1 270 -17 86
-70 199 -129 276 -107 139 -278 232 -474 260 -44 6 -423 12 -429 7z"/>
<path d="M3651 4310 c82 -98 131 -193 171 -328 19 -64 22 -102 23 -224 l0
-147 30 -15 c84 -44 275 -158 283 -170 4 -6 7 -404 7 -884 l0 -874 -25 -18
c-14 -9 -245 -151 -515 -315 -269 -164 -506 -308 -525 -320 -19 -13 -89 -56
-155 -96 -66 -39 -188 -114 -272 -166 -84 -51 -155 -93 -159 -93 -6 0 -1498
915 -1589 975 l-51 33 1 883 c0 600 3 883 10 886 6 2 42 22 80 44 39 23 84 49
100 59 54 31 569 336 593 351 27 17 27 23 3 51 -11 13 -65 79 -121 148 -147
180 -164 200 -178 216 -11 12 -19 10 -50 -10 -20 -12 -42 -25 -47 -27 -8 -3
-374 -212 -473 -270 -15 -9 -108 -62 -207 -118 -99 -57 -184 -107 -190 -112
-6 -6 -10 -436 -10 -1218 l0 -1209 165 -99 c91 -55 304 -185 475 -288 171
-104 416 -252 545 -330 129 -78 352 -213 495 -300 143 -87 275 -166 294 -177
19 -11 59 -35 88 -54 29 -19 59 -34 66 -34 7 0 125 68 262 151 138 83 259 156
270 163 11 6 135 80 275 164 140 85 431 259 645 388 215 128 397 238 405 243
8 5 69 42 135 82 66 39 127 78 135 85 13 11 15 159 15 1221 l0 1208 -481 275
c-265 151 -501 286 -525 300 l-44 24 46 -54z"/>
<path d="M2629 2380 c-48 -13 -71 -32 -90 -73 -38 -84 -12 -189 54 -220 136
-65 254 73 188 220 -26 57 -93 89 -152 73z m91 -57 c59 -53 44 -187 -24 -213
-28 -10 -74 -4 -94 12 -41 35 -50 130 -17 186 30 50 89 56 135 15z"/>
<path d="M1787 2373 c-6 -11 -7 -264 -1 -285 3 -9 12 -15 21 -14 15 2 17 20
18 137 0 74 -1 142 -4 152 -3 17 -26 24 -34 10z"/>
<path d="M1905 2228 c0 -133 2 -151 17 -154 23 -3 25 6 23 138 l-1 117 69
-128 c57 -106 72 -128 90 -127 12 0 24 4 27 8 3 4 5 71 5 150 0 136 -1 143
-20 143 -19 0 -20 -7 -20 -123 0 -68 -4 -118 -8 -110 -5 7 -35 64 -68 126 -54
101 -63 112 -87 112 l-27 0 0 -152z"/>
<path d="M2219 2372 c-5 -40 -3 -271 3 -283 5 -12 21 -15 65 -14 89 3 120 13
151 51 54 66 38 195 -29 230 -33 17 -188 30 -190 16z m144 -38 c52 -11 80 -90
57 -159 -14 -42 -38 -57 -107 -65 l-53 -6 -1 43 c0 24 -1 72 -1 108 0 36 1 71
1 79 1 14 41 14 104 0z"/>
<path d="M3028 2373 c-3 -4 -4 -73 -4 -153 l1 -145 38 -1 c40 -2 40 -3 39 74
-1 38 1 42 23 42 25 0 42 -19 74 -83 13 -26 22 -32 54 -33 20 -1 37 2 37 8 0
18 -62 128 -72 128 -6 0 2 14 16 31 36 43 33 93 -7 119 -24 15 -193 26 -199
13z m136 -59 c22 -8 20 -51 -2 -63 -36 -19 -57 -7 -59 32 -1 32 2 37 22 37 13
0 30 -3 39 -6z"/>
<path d="M2860 2195 c-15 -18 -1 -25 55 -25 39 0 52 4 52 15 0 8 -3 15 -6 16
-43 7 -93 4 -101 -6z"/>
<path d="M1433 1972 c-17 -3 -23 -10 -23 -28 l0 -24 1115 0 1115 0 0 25 c0 14
-6 25 -12 25 -88 3 -2179 4 -2195 2z"/>
<path d="M1459 1848 c-1 -2 -3 -42 -4 -90 -2 -62 1 -88 10 -92 10 -3 13 17 13
85 0 49 -4 92 -9 95 -5 3 -10 4 -10 2z"/>
<path d="M1775 1819 c2 -24 0 -29 -14 -24 -51 20 -94 -17 -84 -75 2 -14 12
-34 23 -45 17 -17 24 -18 50 -8 16 6 30 7 30 2 0 -5 4 -9 9 -9 5 0 9 43 9 95
-1 69 -4 95 -13 95 -8 0 -12 -11 -10 -31z m-3 -72 c10 -52 -28 -87 -60 -55
-17 17 -15 64 4 82 20 20 50 6 56 -27z"/>
<path d="M2440 1841 c0 -6 5 -13 10 -16 6 -3 10 1 10 9 0 9 -4 16 -10 16 -5 0
-10 -4 -10 -9z"/>
<path d="M2899 1832 c0 -12 -1 -38 -1 -57 0 -67 2 -75 22 -95 28 -28 74 -26
98 4 15 19 19 40 18 91 -1 88 -20 89 -24 0 -3 -72 -13 -95 -41 -95 -36 0 -46
18 -47 86 -1 36 -7 71 -13 77 -8 8 -11 5 -12 -11z"/>
<path d="M3376 1843 c-10 -10 -7 -183 3 -183 6 0 11 17 13 38 2 29 7 38 25 40
16 2 28 -7 48 -37 34 -55 53 -52 22 3 -21 37 -23 48 -13 62 14 18 10 60 -6 70
-14 9 -84 14 -92 7z m70 -27 c15 -12 17 -18 8 -33 -25 -40 -71 -24 -60 21 7
29 23 33 52 12z"/>
<path d="M3557 1843 c-3 -7 -2 -73 2 -110 0 -7 5 -13 9 -13 5 0 10 29 11 65 1
38 -2 65 -8 65 -5 0 -12 -3 -14 -7z"/>
<path d="M1573 1803 c-7 -3 -13 -9 -13 -15 0 -6 7 -8 15 -4 26 10 44 -21 42
-72 -1 -33 2 -49 11 -49 8 0 12 17 12 52 0 65 -28 101 -67 88z"/>
<path d="M1874 1799 c-26 -9 -32 -17 -38 -56 -15 -83 101 -116 119 -33 13 57
-33 107 -81 89z m58 -46 c12 -50 -24 -90 -57 -63 -21 17 -19 77 2 89 21 11 49
-2 55 -26z"/>
<path d="M2048 1803 c-10 -3 -18 -9 -18 -15 0 -6 9 -8 20 -5 26 7 37 -10 38
-55 1 -63 2 -68 12 -68 7 0 10 23 8 61 -3 65 -22 91 -60 82z"/>
<path d="M2182 1797 c-23 -11 -38 -47 -33 -82 5 -41 60 -66 105 -49 29 11 16
23 -19 17 -37 -6 -65 9 -65 33 0 10 14 14 50 14 41 0 50 3 50 18 -1 40 -48 67
-88 49z m58 -21 c0 -2 2 -11 5 -19 5 -11 -2 -14 -30 -12 -19 0 -35 4 -35 8 0
4 0 12 0 17 0 6 14 10 30 10 17 0 30 -2 30 -4z"/>
<path d="M2340 1802 c-54 -9 -54 -54 1 -76 49 -20 47 -41 -5 -40 -45 2 -44
-20 2 -24 35 -4 75 28 66 51 -3 8 -24 22 -47 31 -38 15 -40 18 -24 30 10 8 27
12 37 9 11 -3 20 -1 20 5 0 13 -19 19 -50 14z"/>
<path d="M2710 1802 c-8 -3 -18 -10 -22 -16 -5 -8 -8 -7 -8 2 0 6 -4 12 -10
12 -6 0 -10 -28 -10 -64 0 -36 5 -68 10 -71 10 -6 12 6 12 67 1 60 67 74 69
14 2 -59 4 -71 14 -74 11 -3 14 78 4 106 -8 21 -35 32 -59 24z"/>
<path d="M3098 1796 c-35 -18 -29 -48 15 -68 20 -10 37 -25 37 -34 0 -14 -7
-15 -40 -10 -23 4 -40 2 -40 -3 0 -15 37 -23 69 -16 54 12 50 57 -5 75 -47 16
-44 46 4 42 18 -2 32 1 32 6 0 15 -47 20 -72 8z"/>
<path d="M3238 1794 c-63 -33 -33 -134 39 -134 11 0 28 7 39 15 17 13 16 14
-18 8 -40 -6 -68 8 -68 34 0 8 8 13 18 12 54 -5 82 2 82 19 0 39 -54 66 -92
46z m66 -30 c6 -15 5 -16 -41 -18 -36 -2 -45 16 -17 32 21 12 51 4 58 -14z"/>
<path d="M1526 1743 c3 -88 3 -88 13 -77 5 5 10 32 11 59 2 70 2 75 -13 75 -9
0 -12 -16 -11 -57z"/>
<path d="M1995 1733 c0 -83 18 -90 25 -11 6 65 4 78 -14 78 -8 0 -11 -22 -11
-67z"/>
<path d="M2439 1783 c-2 -49 4 -109 12 -117 5 -6 9 18 9 62 0 41 -4 72 -10 72
-5 0 -10 -8 -11 -17z"/>
<path d="M2510 1791 c0 -5 13 -9 29 -9 15 1 33 -2 40 -6 19 -12 12 -26 -15
-26 -39 0 -64 -18 -64 -46 0 -32 42 -54 70 -36 12 7 21 8 25 2 4 -6 10 -8 15
-5 11 7 2 105 -11 122 -13 15 -89 18 -89 4z m80 -74 c0 -18 -21 -37 -41 -37
-18 0 -33 26 -23 41 8 14 64 11 64 -4z"/>
<path d="M3555 1690 c-4 -7 -1 -16 6 -21 17 -10 26 8 11 23 -6 6 -12 6 -17 -2z"/>
</g>
</svg>
